<?xml version="1.0" encoding="utf-8"?>
<!-- Generator: Adobe Illustrator 25.3.1, SVG Export Plug-In . SVG Version: 6.00 Build 0)  -->
<svg version="1.1" id="Layer_1" xmlns="http://www.w3.org/2000/svg" xmlns:xlink="http://www.w3.org/1999/xlink" x="0px" y="0px"
     viewBox="0 0 140 140" style="enable-background:new 0 0 140 140;" xml:space="preserve">
<style type="text/css">
	.st0{fill:#FFFFFF;}
</style>
    <path class="st0" d="M70,0C31.3,0,0,31.3,0,70s31.3,70,70,70s70-31.3,70-70S108.7,0,70,0z M77.6,114.2c-0.7,3.5-4.1,5.6-7.5,4.9
	c-3.5-0.7-5.6-4.1-4.9-7.5c0.7-3.5,4.1-5.6,7.5-4.9C76.2,107.4,78.3,110.7,77.6,114.2z M72.9,95.2c0,0-4.7,0.3-5.9,0.5
	c-5.4,0.7-10,4.8-11.2,10.4c0,0-1.6,7.3-1.7,7.9c-0.6,2.8-3.4,4.6-6.2,4c-2.8-0.6-4.6-3.4-4-6.2c0.1-0.6,11.9-55.6,11.9-55.6
	c0.6-2.8,3.4-4.6,6.2-4c2.8,0.6,4.6,3.4,4,6.2L61.1,81l-0.9,4.4c-0.1,0.3,0.2,0.6,0.5,0.5c0.7-0.1,1.7-0.3,3-0.5
	c2.6-0.4,7.9-0.7,7.9-0.7C85.9,83.9,97.3,72,97.3,57.5c0-15.5-13-28-28.7-27.2C54.5,31,43.1,42.6,42.7,56.7
	c-0.1,3.3,0.4,6.6,1.5,9.7c0.9,2.8-0.6,5.8-3.3,6.7c-2.8,0.9-5.8-0.6-6.7-3.3c-1.3-4-2-8.1-2-12.3c0-20.9,17-37.8,37.8-37.8
	s37.8,16.9,37.8,37.8C107.8,77.4,92.4,93.7,72.9,95.2z"/>
</svg>
